<mxfile host="app.diagrams.net" agent="Mozilla/5.0 (Macintosh; Intel Mac OS X 10_15_7) AppleWebKit/537.36 (KHTML, like Gecko) Chrome/129.0.0.0 Safari/537.36" version="24.8.0">
  <diagram name="第 1 页" id="cnCq_Sb7SKisUn2pn8L9">
    <mxGraphModel dx="1026" dy="650" grid="1" gridSize="10" guides="1" tooltips="1" connect="1" arrows="1" fold="1" page="1" pageScale="1" pageWidth="827" pageHeight="1169" math="0" shadow="0">
      <root>
        <mxCell id="0" />
        <mxCell id="1" parent="0" />
        <mxCell id="DRxXZLqv_cSccFbDKCdr-3" value="" style="edgeStyle=orthogonalEdgeStyle;rounded=0;orthogonalLoop=1;jettySize=auto;html=1;" edge="1" parent="1" source="DRxXZLqv_cSccFbDKCdr-1" target="DRxXZLqv_cSccFbDKCdr-2">
          <mxGeometry relative="1" as="geometry" />
        </mxCell>
        <mxCell id="DRxXZLqv_cSccFbDKCdr-1" value="标签分类删除" style="ellipse;whiteSpace=wrap;html=1;" vertex="1" parent="1">
          <mxGeometry x="340" y="140" width="90" height="50" as="geometry" />
        </mxCell>
        <mxCell id="DRxXZLqv_cSccFbDKCdr-5" value="" style="edgeStyle=orthogonalEdgeStyle;rounded=0;orthogonalLoop=1;jettySize=auto;html=1;" edge="1" parent="1" source="DRxXZLqv_cSccFbDKCdr-2" target="DRxXZLqv_cSccFbDKCdr-4">
          <mxGeometry relative="1" as="geometry" />
        </mxCell>
        <mxCell id="DRxXZLqv_cSccFbDKCdr-2" value="校验参数完整" style="rhombus;whiteSpace=wrap;html=1;" vertex="1" parent="1">
          <mxGeometry x="337.5" y="240" width="95" height="65" as="geometry" />
        </mxCell>
        <mxCell id="DRxXZLqv_cSccFbDKCdr-7" value="" style="edgeStyle=orthogonalEdgeStyle;rounded=0;orthogonalLoop=1;jettySize=auto;html=1;" edge="1" parent="1" source="DRxXZLqv_cSccFbDKCdr-4" target="DRxXZLqv_cSccFbDKCdr-6">
          <mxGeometry relative="1" as="geometry" />
        </mxCell>
        <mxCell id="DRxXZLqv_cSccFbDKCdr-4" value="校验分类存在" style="rhombus;whiteSpace=wrap;html=1;" vertex="1" parent="1">
          <mxGeometry x="332.5" y="340" width="105" height="72.5" as="geometry" />
        </mxCell>
        <mxCell id="DRxXZLqv_cSccFbDKCdr-9" value="" style="edgeStyle=orthogonalEdgeStyle;rounded=0;orthogonalLoop=1;jettySize=auto;html=1;" edge="1" parent="1" source="DRxXZLqv_cSccFbDKCdr-6" target="DRxXZLqv_cSccFbDKCdr-8">
          <mxGeometry relative="1" as="geometry" />
        </mxCell>
        <mxCell id="DRxXZLqv_cSccFbDKCdr-6" value="校验分类下&lt;div&gt;无子分类和标签&lt;/div&gt;" style="rhombus;whiteSpace=wrap;html=1;" vertex="1" parent="1">
          <mxGeometry x="322.5" y="440" width="125" height="80" as="geometry" />
        </mxCell>
        <mxCell id="DRxXZLqv_cSccFbDKCdr-11" value="" style="edgeStyle=orthogonalEdgeStyle;rounded=0;orthogonalLoop=1;jettySize=auto;html=1;" edge="1" parent="1" source="DRxXZLqv_cSccFbDKCdr-8" target="DRxXZLqv_cSccFbDKCdr-10">
          <mxGeometry relative="1" as="geometry" />
        </mxCell>
        <mxCell id="DRxXZLqv_cSccFbDKCdr-8" value="分类表修改分类状态" style="shape=process;whiteSpace=wrap;html=1;backgroundOutline=1;" vertex="1" parent="1">
          <mxGeometry x="325" y="570" width="120" height="60" as="geometry" />
        </mxCell>
        <mxCell id="DRxXZLqv_cSccFbDKCdr-10" value="返回成功信息" style="whiteSpace=wrap;html=1;" vertex="1" parent="1">
          <mxGeometry x="332.5" y="710" width="105" height="40" as="geometry" />
        </mxCell>
      </root>
    </mxGraphModel>
  </diagram>
</mxfile>
